<svg width="36" height="37" viewBox="0 0 36 37" fill="none" xmlns="http://www.w3.org/2000/svg">
<path d="M23.9551 34.625H11.9551C6.82508 34.625 4.83008 32.63 4.83008 27.5V15.5C4.83008 14.885 5.34008 14.375 5.95508 14.375H29.9551C30.5701 14.375 31.0801 14.885 31.0801 15.5V27.5C31.0801 32.63 29.0851 34.625 23.9551 34.625ZM7.08008 16.625V27.5C7.08008 31.37 8.08508 32.375 11.9551 32.375H23.9551C27.8251 32.375 28.8301 31.37 28.8301 27.5V16.625H7.08008Z" fill="#111111"/>
<path d="M29.25 16.625H6.75C4.125 16.625 2.625 15.125 2.625 12.5V11C2.625 8.375 4.125 6.875 6.75 6.875H29.25C31.8 6.875 33.375 8.45 33.375 11V12.5C33.375 15.05 31.8 16.625 29.25 16.625ZM6.75 9.125C5.385 9.125 4.875 9.635 4.875 11V12.5C4.875 13.865 5.385 14.375 6.75 14.375H29.25C30.57 14.375 31.125 13.82 31.125 12.5V11C31.125 9.68 30.57 9.125 29.25 9.125H6.75Z" fill="#111111"/>
<path d="M17.4601 9.12531H9.18014C8.86514 9.12531 8.56514 8.99031 8.35514 8.76531C7.44014 7.76031 7.47014 6.21531 8.43014 5.25531L10.5601 3.12531C11.5501 2.13531 13.1851 2.13531 14.1751 3.12531L18.2551 7.20531C18.5701 7.52031 18.6751 8.01531 18.4951 8.43531C18.3301 8.85531 17.9251 9.12531 17.4601 9.12531ZM10.0051 6.87531H14.7601L12.5851 4.71531C12.4651 4.59531 12.2701 4.59531 12.1501 4.71531L10.0201 6.84531C10.0201 6.86031 10.0051 6.86031 10.0051 6.87531Z" fill="#111111"/>
<path d="M26.8051 9.12531H18.5251C18.0751 9.12531 17.6551 8.85531 17.4901 8.43531C17.3101 8.01531 17.4151 7.53531 17.7301 7.20531L21.8101 3.12531C22.8001 2.13531 24.4351 2.13531 25.4251 3.12531L27.5551 5.25531C28.5151 6.21531 28.5601 7.76031 27.6301 8.76531C27.4201 8.99031 27.1201 9.12531 26.8051 9.12531ZM21.2551 6.87531H26.0101C25.9951 6.86031 25.9951 6.86031 25.9801 6.84531L23.8501 4.71531C23.7301 4.59531 23.5351 4.59531 23.4151 4.71531L21.2551 6.87531Z" fill="#111111"/>
<path d="M14.9102 25.85C14.4902 25.85 14.0552 25.745 13.6652 25.535C12.8102 25.07 12.2852 24.185 12.2852 23.225V15.5C12.2852 14.885 12.7952 14.375 13.4102 14.375H22.4702C23.0852 14.375 23.5952 14.885 23.5952 15.5V23.195C23.5952 24.17 23.0702 25.055 22.2152 25.505C21.3602 25.97 20.3252 25.91 19.5152 25.37L18.1802 24.47C18.0602 24.38 17.8952 24.38 17.7602 24.47L16.3502 25.4C15.9152 25.7 15.4052 25.85 14.9102 25.85ZM14.5352 16.625V23.21C14.5352 23.405 14.6552 23.495 14.7302 23.54C14.8052 23.585 14.9552 23.63 15.1202 23.525L16.5302 22.595C17.4152 22.01 18.5552 22.01 19.4252 22.595L20.7602 23.495C20.9252 23.6 21.0752 23.555 21.1502 23.51C21.2252 23.465 21.3452 23.375 21.3452 23.18V16.61H14.5352V16.625Z" fill="#111111"/>
</svg>
